PathFileType	4	(X/Y/Z)	Subject_003_static.trc	
DataRate	CameraRate	NumFrames	NumMarkers	Units	OrigDataRate	OrigDataStartFrame	OrigNumFrames	
100.00	100.00	10	24	mm	100.00	123	140	
Frame#	Time	LASI			RASI			LPSI			RPSI			LTHI			LKNE			LMKNE			LTIB			LANK			LHEE			LTOE			RTHI			RKNE			RMKNE			RTIB			RANK			RHEE			RTOE			LFEO			LFEP			LTIO			RFEO			RFEP			RTIO			
		X1	Y1	Z1	X2	Y2	Z2	X3	Y3	Z3	X4	Y4	Z4	X5	Y5	Z5	X6	Y6	Z6	X7	Y7	Z7	X8	Y8	Z8	X9	Y9	Z9	X10	Y10	Z10	X11	Y11	Z11	X12	Y12	Z12	X13	Y13	Z13	X14	Y14	Z14	X15	Y15	Z15	X16	Y16	Z16	X17	Y17	Z17	X18	Y18	Z18	X19	Y19	Z19	X20	Y20	Z20	X21	Y21	Z21	X22	Y22	Z22	X23	Y23	Z23	X24	Y24	Z24	

123	1.220	-845.15778	594.62122	16.26065	-786.42712	584.70502	185.13908	-934.35590	634.35779	110.52531	-911.48724	628.29053	166.48457	-910.54675	392.24762	-25.04594	-888.63617	304.27521	30.98468	-868.46661	301.28033	127.33887	-881.76733	146.90881	-16.70205	-881.77338	48.34041	39.22725	-931.17981	35.45806	64.58151	-787.56000	34.40370	75.45451	-810.80334	393.59396	277.55438	-826.60211	297.57706	244.36638	-869.07117	275.99405	152.14415	-882.72186	178.58928	341.39838	-966.50623	119.34180	349.85416	-1005.79730	158.66299	337.21359	-984.34406	28.37127	333.11508	-873.88898	308.89822	74.31072	-888.46106	552.26355	53.30310	-880.40845	47.92471	71.19543	-843.27948	293.60910	201.14171	-843.92419	544.86597	178.32536	-988.47308	120.52089	325.93097 
124	1.230	-844.89081	594.54065	16.53289	-786.66760	584.81506	185.68048	-934.26068	634.38458	110.59373	-911.51575	628.35321	166.54794	-909.93683	392.13959	-25.22037	-888.17542	304.32422	31.02949	-868.17682	301.29791	127.43163	-881.52191	146.94283	-16.66179	-881.77887	48.34561	39.21361	-931.23309	35.50844	64.51986	-787.57367	34.43198	75.43398	-810.93939	393.68265	278.08957	-826.52905	297.68982	244.85255	-868.83661	276.02618	152.45618	-882.92749	178.72623	341.99338	-966.50244	119.32998	349.91531	-1005.87762	158.68497	337.27478	-984.35846	28.40693	333.13303	-873.64410	308.92850	74.43042	-888.30811	552.23767	53.52844	-880.48669	47.91416	71.18461	-843.12274	293.67944	201.59958	-844.16571	544.98401	178.69902	-988.33710	120.38091	325.86551 
125	1.240	-844.60260	594.50793	16.71884	-786.78601	584.85077	186.02820	-934.12378	634.38953	110.69634	-911.44220	628.37860	166.63914	-909.59998	392.23419	-24.87527	-887.75140	304.31119	31.09998	-867.98950	301.25623	127.52406	-881.15460	146.96533	-16.61428	-881.75507	48.37636	39.18888	-931.21674	35.49058	64.50837	-787.55219	34.46698	75.45332	-811.05890	393.74365	278.67883	-826.38037	297.83301	245.33998	-868.28760	275.87839	152.94759	-882.99390	178.76950	342.47229	-966.51465	119.28966	350.07172	-1005.89526	158.66200	337.37296	-984.38641	28.38001	333.20798	-873.17059	308.92371	74.48343	-888.11639	552.23260	53.63805	-880.54315	47.93532	71.16289	-842.81177	293.75351	202.03159	-844.27911	545.03009	178.91869	-988.26227	120.28796	325.94095 
126	1.250	-844.37793	594.41937	16.87950	-786.78534	584.79694	186.29012	-934.04425	634.39746	110.76795	-911.44562	628.36652	166.76505	-909.28662	392.28702	-24.84417	-887.44916	304.32205	31.14563	-867.67529	301.18472	127.60424	-881.01965	147.07292	-16.58472	-881.74854	48.39410	39.17871	-931.25067	35.50740	64.43860	-787.58997	34.49682	75.42583	-811.20544	393.76151	279.13266	-826.38654	297.94629	245.92729	-868.03436	275.88895	153.33922	-882.96466	178.89441	342.71170	-966.57336	119.27257	350.17593	-1005.93048	158.65862	337.45132	-984.39246	28.33582	333.25598	-872.91742	308.92828	74.54621	-887.95325	552.17175	53.76466	-880.55212	47.94341	71.15317	-842.72314	293.79327	202.59001	-844.28680	544.99542	179.10648	-988.27405	120.28309	326.00342 
127	1.260	-844.01691	594.26422	17.13237	-786.75513	584.63763	186.62108	-933.94214	634.40643	110.83136	-911.46552	628.38898	166.93561	-908.67426	392.14990	-24.99641	-886.94751	304.28784	31.24842	-867.03198	300.81586	127.56001	-880.74445	146.94313	-16.49759	-881.69629	48.34968	39.20591	-931.20660	35.46289	64.48271	-787.57312	34.41271	75.51855	-811.24933	393.92047	279.59134	-826.08350	297.82956	246.58759	-867.46008	275.80930	153.72787	-883.14490	178.77580	343.18158	-966.46979	119.27552	350.41611	-1005.83276	158.60664	337.57468	-984.34003	28.29189	333.33557	-872.59711	308.89221	74.70949	-887.70862	552.07428	53.93581	-880.55798	47.88284	71.18225	-842.26971	293.58395	203.20288	-844.27948	544.89252	179.35973	-988.07831	120.24577	326.15952 
128	1.270	-843.72229	594.06836	17.44370	-786.76709	584.57727	186.95395	-933.79895	634.36566	110.88015	-911.54297	628.41681	167.04605	-908.46613	392.13321	-24.87477	-886.59882	304.22501	31.31913	-866.87915	300.86066	127.63000	-880.52203	146.91656	-16.48244	-881.69745	48.31032	39.20174	-931.24371	35.46220	64.42583	-787.62415	34.42403	75.47559	-811.11078	393.83820	279.99203	-825.80676	297.86154	247.09352	-867.10077	275.82144	153.95444	-882.93817	178.83342	343.42706	-966.42737	119.13074	350.58237	-1005.75372	158.59612	337.60123	-984.27655	28.25256	333.32318	-872.20172	308.81094	74.76671	-887.51099	551.94116	54.17705	-880.59381	47.83525	71.17918	-841.98090	293.56412	203.70943	-844.28882	544.85577	179.67795	-987.99017	120.11179	326.28561 
129	1.280	-843.43390	593.92639	17.66683	-786.93530	584.51678	187.46799	-933.64941	634.35431	110.96659	-911.56671	628.39752	167.16772	-908.08923	392.22998	-24.55413	-886.19873	304.27451	31.52747	-866.77563	300.90305	127.87004	-880.35077	146.88928	-16.43300	-881.69226	48.29930	39.19735	-931.23163	35.40514	64.40755	-787.62567	34.37727	75.51794	-811.14160	393.80212	280.58292	-825.49811	297.90009	247.48407	-866.36737	275.59930	154.54308	-882.82532	178.77081	343.68195	-966.43646	119.09183	350.79562	-1005.61133	158.59229	337.65176	-984.27448	28.22544	333.37546	-871.81970	308.87921	74.97903	-887.34015	551.85712	54.36607	-880.60229	47.79669	71.17484	-841.51465	293.55338	204.04645	-844.48566	544.83606	179.99658	-987.97119	120.10878	326.47537 
130	1.290	-843.06439	593.76569	17.94817	-787.16437	584.47504	188.01877	-933.52295	634.40497	110.96914	-911.59296	628.41431	167.23856	-907.75250	392.27029	-24.51312	-886.13940	304.21637	31.52692	-866.73969	300.89520	127.96957	-880.24390	146.89722	-16.46276	-881.70581	48.30729	39.18842	-931.24225	35.43834	64.35580	-787.66119	34.39348	75.52853	-811.09930	393.75580	281.02670	-825.13831	298.01501	248.01236	-865.72552	275.45895	154.92920	-882.65698	178.85788	344.17236	-966.28882	119.04167	350.94809	-1005.41803	158.58517	337.66687	-984.25317	28.28061	333.35547	-871.90100	308.77280	75.02985	-887.13757	551.78180	54.56447	-880.68347	47.79967	71.16806	-841.09906	293.59753	204.56137	-844.74011	544.85004	180.35498	-987.73560	120.01193	326.54840 
131	1.300	-842.73529	593.60809	18.25953	-787.26105	584.33521	188.44289	-933.31976	634.42670	111.07893	-911.59601	628.37872	167.40259	-907.43579	392.13321	-24.44339	-885.89838	304.23615	31.69834	-866.65900	300.85712	128.12602	-880.08716	146.92332	-16.35182	-881.68896	48.28097	39.23294	-931.22308	35.37099	64.38506	-787.64728	34.35236	75.60406	-811.08569	393.80911	281.53354	-824.92590	298.01254	248.76488	-865.21838	275.51944	155.24986	-882.50873	178.88930	344.71185	-966.10614	119.09073	351.12433	-1005.13995	158.61946	337.80859	-984.16187	28.23935	333.42493	-871.73883	308.78735	75.22758	-886.94995	551.69543	54.77838	-880.70599	47.75542	71.21353	-840.85400	293.49780	205.31186	-844.86163	544.77460	180.67317	-987.48462	120.05034	326.66431 
132	1.310	-842.30054	593.48608	18.55455	-787.28674	584.27490	188.75078	-933.14459	634.48999	111.14424	-911.63495	628.41156	167.51408	-907.29041	392.32385	-24.26212	-885.65906	304.24667	31.75429	-866.60657	300.80139	128.22809	-879.94843	146.94003	-16.34553	-881.69116	48.32046	39.20423	-931.23804	35.41283	64.34647	-787.66565	34.35847	75.63148	-810.98120	393.79819	281.95676	-824.35931	298.03992	249.14279	-864.28839	275.14526	155.41534	-882.51807	178.82240	345.08765	-965.88336	119.12905	351.21664	-1004.85272	158.62408	337.85986	-984.17371	28.19927	333.52310	-871.41565	308.78259	75.25776	-886.65637	551.63196	54.92698	-880.71735	47.78669	71.18495	-840.09808	293.46323	205.62730	-844.87854	544.75092	180.92732	-987.15918	120.03542	326.66528 
